<?xml version="1.0" encoding="iso-8859-1"?>
<!-- Generator: Adobe Illustrator 18.1.1, SVG Export Plug-In . SVG Version: 6.00 Build 0)  -->
<svg xmlns="http://www.w3.org/2000/svg" xmlns:xlink="http://www.w3.org/1999/xlink" version="1.1" id="Capa_1" x="0px" y="0px" viewBox="0 0 13.999 13.999" style="enable-background:new 0 0 13.999 13.999;" xml:space="preserve" width="512px" height="512px">
<g>
	<path d="M12.534,13.635c-0.009-0.009-0.845-0.905-0.845-1.938c0-1.016,0.667-1.578,0.695-1.603   c0.018-0.015,0.031-0.032,0.044-0.054c0.012,0.003,0.022,0.003,0.033,0.005V9.953c0-0.005,0-0.011,0-0.016V9.448l0,0   c-0.002-0.038-0.005-0.131-0.005-0.19V0.487l0.007-0.385V0h-0.262H3.723c-1.19,0-2.242,0.943-2.296,2.119   c-0.002,0.034-0.01,0.066-0.01,0.101c0,0.034,0.008,0.066,0.01,0.1l-0.021,8.75l0.001,0.651c0,1.255,1.02,2.273,2.273,2.273   c0,0,6.685,0,8.669,0c0.002,0,0.002,0,0.002,0c-0.491,0-0.963,0.002,0.005,0.002c0.007,0,0.014,0.003,0.019,0.003   c0.007,0,0.014-0.003,0.021-0.003c0.024,0,0.041,0,0.065,0v-0.002c-0.021,0-0.04,0-0.061,0h0.001c0.02,0,0.04,0,0.06,0l-0.006-0.01   c0.025-0.011,0.05-0.025,0.069-0.044C12.613,13.86,12.615,13.723,12.534,13.635z M5.361,1.479h4.927v1.625H5.361V1.479z    M2.727,11.722c0-0.831,0.679-1.51,1.512-1.51h7.083c-0.224,0.271-0.533,0.772-0.533,1.487c0,0.616,0.269,1.161,0.505,1.524   c-1.742,0.003-7.055,0.01-7.055,0.01C3.406,13.233,2.727,12.556,2.727,11.722z" fill="#FFFFFF"/>
</g>
<g>
</g>
<g>
</g>
<g>
</g>
<g>
</g>
<g>
</g>
<g>
</g>
<g>
</g>
<g>
</g>
<g>
</g>
<g>
</g>
<g>
</g>
<g>
</g>
<g>
</g>
<g>
</g>
<g>
</g>
</svg>
